<?xml version="1.0" encoding="UTF-8" standalone="no"?>
<svg
   width="110.00285pt"
   height="110.00285pt"
   viewBox="0 0 110.00285 110.00285"
   version="1.1"
   id="svg4"
   sodipodi:docname="logo.svg"
   inkscape:version="1.4.3 (0d15f75, 2025-12-25)"
   xmlns:inkscape="http://www.inkscape.org/namespaces/inkscape"
   xmlns:sodipodi="http://sodipodi.sourceforge.net/DTD/sodipodi-0.dtd"
   xmlns="http://www.w3.org/2000/svg"
   xmlns:svg="http://www.w3.org/2000/svg"
   xmlns:rdf="http://www.w3.org/1999/02/22-rdf-syntax-ns#"
   xmlns:cc="http://creativecommons.org/ns#"
   xmlns:dc="http://purl.org/dc/elements/1.1/">
  <sodipodi:namedview
     id="namedview4"
     pagecolor="#505050"
     bordercolor="#ffffff"
     borderopacity="1"
     inkscape:showpageshadow="0"
     inkscape:pageopacity="0"
     inkscape:pagecheckerboard="1"
     inkscape:deskcolor="#505050"
     inkscape:document-units="pt"
     inkscape:zoom="1.9662342"
     inkscape:cx="76.287961"
     inkscape:cy="146.72718"
     inkscape:window-width="1512"
     inkscape:window-height="846"
     inkscape:window-x="0"
     inkscape:window-y="38"
     inkscape:window-maximized="0"
     inkscape:current-layer="figure_1" />
  <metadata
     id="metadata1">
    <rdf:RDF>
      <cc:Work>
        <dc:type
           rdf:resource="http://purl.org/dc/dcmitype/StillImage" />
        <dc:date>2026-03-06T14:55:29.574192</dc:date>
        <dc:format>image/svg+xml</dc:format>
        <dc:creator>
          <cc:Agent>
            <dc:title>Matplotlib v3.10.7, https://matplotlib.org/</dc:title>
          </cc:Agent>
        </dc:creator>
      </cc:Work>
    </rdf:RDF>
  </metadata>
  <defs
     id="defs1">
    <style
       type="text/css"
       id="style1">*{stroke-linejoin: round; stroke-linecap: butt}</style>
  </defs>
  <g
     id="figure_1"
     transform="translate(-188.96254,-50.362535)">
    <g
       id="axes_1"
       transform="rotate(45,246.6,108)">
      <g
         id="patch_2">
        <path
           d="m 216,144 c 9.54731,0 18.70487,-3.79319 25.45584,-10.54416 C 248.20681,126.70488 252,117.54731 252,108 252,98.452688 248.20681,89.295125 241.45584,82.544156 234.70487,75.793187 225.54731,72 216,72 206.45269,72 197.29513,75.793187 190.54416,82.544156 183.79319,89.295125 180,98.452688 180,108 c 0,9.54731 3.79319,18.70488 10.54416,25.45584 C 197.29513,140.20681 206.45269,144 216,144 Z"
           clip-path="url(#p86602c6487)"
           style="fill:#ffffff"
           id="path2" />
      </g>
      <g
         id="line2d_1">
        <path
           d="m 240.27119,81.412238 2.76134,-1.079453 2.86336,-0.923481 2.94879,-0.75357 3.01628,-0.571332 3.06469,-0.378512 3.09301,-0.176971 3.10046,0.03134 3.08648,0.244377 3.05065,0.460066 2.99283,0.676281 2.91309,0.890894 2.81168,1.101782 2.68908,1.306856 2.54601,1.504083 2.38336,1.6915 2.2022,1.867245 2.00384,2.029563 1.78972,2.176836 1.56144,2.307595 1.32075,2.420531 1.06953,2.514516 0.80975,2.588606 0.54348,2.64207 0.27283,2.67436 v 2.68516 l -0.27283,2.67436 -0.54348,2.64207 -0.80975,2.58861 -1.06953,2.51452 -1.32075,2.42053 -1.56144,2.30759 -1.78972,2.17684 -2.00384,2.02956 -2.2022,1.86724 -2.38336,1.6915 -2.54601,1.50409 -2.68908,1.30685 -2.81168,1.10179 -2.91309,0.89089 -2.99283,0.67628 -3.05065,0.46007 -3.08648,0.24437 -3.10046,0.0313 -3.09301,-0.17697 -3.06469,-0.37851 -3.01628,-0.57133 -2.94879,-0.75357 -2.86336,-0.92349 -2.76134,-1.07945"
           clip-path="url(#p86602c6487)"
           style="fill:none;stroke:#ffffff;stroke-width:7;stroke-linecap:square"
           id="path3" />
      </g>
      <g
         id="patch_3">
        <path
           d="m 295.2,126 c 4.77366,0 9.35244,-1.89659 12.72792,-5.27208 C 311.30341,117.35244 313.2,112.77366 313.2,108 c 0,-4.77366 -1.89659,-9.352438 -5.27208,-12.727922 C 304.55244,91.896594 299.97366,90 295.2,90 c -4.77366,0 -9.35244,1.896594 -12.72792,5.272078 C 279.09659,98.647562 277.2,103.22634 277.2,108 c 0,4.77366 1.89659,9.35244 5.27208,12.72792 C 285.84756,124.10341 290.42634,126 295.2,126 Z"
           clip-path="url(#p86602c6487)"
           style="fill:#ffffff"
           id="path4" />
      </g>
    </g>
  </g>
  <defs
     id="defs4">
    <clipPath
       id="p86602c6487">
      <rect
         x="0"
         y="0"
         width="432"
         height="216"
         id="rect4" />
    </clipPath>
  </defs>
</svg>
